<svg width="40" height="40" viewBox="0 0 40 40" fill="none" xmlns="http://www.w3.org/2000/svg">
<rect width="40" height="40" rx="20" fill="#DFDDEE"/>
<path d="M20 30C20.6701 30 21.1443 29.5155 21.1443 28.8204V15.8136L21.0619 13.5387L23.732 16.5824L26.0825 18.9626C26.2887 19.1732 26.5773 19.3102 26.8969 19.3102C27.5258 19.3102 28 18.8257 28 18.1622C28 17.8568 27.8866 17.5724 27.6392 17.3196L20.8454 10.3686C20.6186 10.1264 20.3093 10 20 10C19.6804 10 19.3711 10.1264 19.1443 10.3686L12.3608 17.3196C12.1134 17.5724 12 17.8568 12 18.1622C12 18.8257 12.4639 19.3102 13.0928 19.3102C13.4227 19.3102 13.7113 19.1732 13.9175 18.9626L16.2577 16.5824L18.9381 13.5282L18.8454 15.8136V28.8204C18.8454 29.5155 19.3196 30 20 30Z" fill="#5E57A9"/>
</svg>
