<svg width="182" height="56" viewBox="0 0 182 56" fill="none" xmlns="http://www.w3.org/2000/svg">
<path d="M75.5623 35.2021C75.2948 35.2021 74.5516 35.1984 73.3364 35.1909C72.1213 35.1835 70.9136 35.1797 69.7133 35.1797C68.6766 35.1797 67.6658 35.1835 66.6811 35.1909C65.6963 35.1984 64.9791 35.2021 64.5332 35.2021C64.5406 34.8071 64.5518 33.9426 64.5629 32.616C64.5741 31.2856 64.5815 29.605 64.5815 27.5704C64.5815 26.7095 64.5778 25.614 64.5704 24.2799C64.5629 22.9458 64.5518 21.5894 64.5369 20.2032C65.0423 20.2032 65.7669 20.2032 66.7034 20.2106C67.6398 20.2144 68.5799 20.2181 69.5275 20.2181C70.817 20.2181 72.0804 20.2181 73.3216 20.2106C74.559 20.2069 75.2613 20.2032 75.4248 20.2032V22.9757C75.2985 22.9757 74.808 22.9719 73.9607 22.9645C73.1098 22.957 72.2551 22.9533 71.4004 22.9533C70.9024 22.9533 70.319 22.9533 69.6539 22.9607C68.9887 22.9645 68.4685 22.9682 68.0894 22.9682C68.0894 23.5309 68.0857 24.1234 68.0783 24.7457C68.0708 25.368 68.0671 25.9307 68.0671 26.4338C68.4536 26.4338 68.9478 26.4338 69.5498 26.4412C70.1518 26.445 70.646 26.4487 71.0325 26.4487C71.995 26.4487 72.8942 26.445 73.734 26.4375C74.5739 26.4301 75.109 26.4263 75.3394 26.4263V28.6585C75.1907 28.6585 74.611 28.6547 73.604 28.6473C72.5969 28.6398 71.7534 28.6361 71.0771 28.6361C70.6981 28.6361 70.2001 28.6361 69.5833 28.6436C68.9664 28.6473 68.461 28.651 68.0671 28.651C68.0671 29.5267 68.0671 30.2758 68.0746 30.9018C68.0783 31.5278 68.0857 32.0384 68.0931 32.4334C68.5391 32.4408 69.1373 32.4483 69.8843 32.452C70.6312 32.4557 71.3038 32.4594 71.9095 32.4594C72.7604 32.4594 73.5334 32.4557 74.2246 32.4483C74.9195 32.4408 75.3691 32.4371 75.5772 32.4371V35.2207L75.5623 35.2021Z" fill="#403E8C"/>
<path d="M92.9496 34.3115L89.3005 35.5412C89.2224 35.2953 89.0329 34.7512 88.7245 33.9128C88.4198 33.0743 88.0556 32.1278 87.632 31.0732H81.939C81.5043 32.1427 81.1327 33.0967 80.8242 33.9351C80.5158 34.7736 80.33 35.3065 80.2594 35.5412L76.8258 34.3674C77.0265 33.9202 77.8031 32.139 79.1595 29.0237C80.5121 25.9084 81.8053 22.9235 83.0353 20.0691H86.8293C88.1113 23.0763 89.4268 26.1432 90.7794 29.2696C92.1283 32.3998 92.853 34.0767 92.9496 34.3115ZM86.7624 28.7405C86.48 27.9766 86.1679 27.1381 85.8297 26.2214C85.4915 25.3047 85.1534 24.4066 84.8152 23.5235H84.7706C84.4882 24.2501 84.1501 25.1482 83.7599 26.2177C83.3697 27.2872 83.0501 28.1293 82.8086 28.7442V28.7554H86.7661V28.7442L86.7624 28.7405Z" fill="#403E8C"/>
<path d="M104.64 30.8161C104.64 31.6397 104.425 32.3477 103.997 32.9439C103.57 33.5402 102.987 34.032 102.247 34.4196C101.597 34.7624 100.798 35.0195 99.8466 35.1835C98.8953 35.3475 97.9365 35.4295 96.9666 35.4295C96.2643 35.4295 95.6363 35.4146 95.0826 35.3885C94.5252 35.3624 94.1611 35.34 93.979 35.3251L93.6445 32.3067C93.7337 32.3216 94.0756 32.3477 94.6664 32.3812C95.2573 32.4148 95.7924 32.4334 96.2606 32.4334C96.6099 32.4334 97.0484 32.4036 97.5686 32.344C98.0889 32.2843 98.5274 32.2024 98.8767 32.098C99.3449 31.9564 99.6756 31.7738 99.8651 31.554C100.055 31.3341 100.151 31.0621 100.151 30.7416C100.151 30.3839 100.047 30.082 99.8391 29.8398C99.631 29.5976 99.2706 29.3442 98.7652 29.0833C98.453 28.9268 98.0294 28.7293 97.4943 28.4871C96.9592 28.2486 96.5059 28.0101 96.1231 27.7679C95.3911 27.3282 94.8671 26.8288 94.5512 26.2773C94.2354 25.7221 94.0756 25.1109 94.0756 24.4365C94.0756 23.8589 94.1945 23.3409 94.4286 22.8825C94.6627 22.4242 94.9749 22.0292 95.3613 21.6975C95.9522 21.1572 96.7511 20.7436 97.7656 20.4529C98.7801 20.1622 99.9766 20.0169 101.355 20.0169C102.013 20.0169 102.578 20.0281 103.05 20.0467C103.522 20.0653 103.819 20.084 103.938 20.0989L104.317 23.1173C104.131 23.1099 103.838 23.0875 103.433 23.054C103.027 23.0204 102.526 23.0018 101.924 23.0018C101.508 23.0018 101.106 23.0316 100.72 23.0912C100.337 23.1508 99.9692 23.2403 99.6162 23.3595C99.2892 23.4639 99.029 23.6204 98.8395 23.8291C98.65 24.0377 98.5534 24.2911 98.5534 24.593C98.5534 24.8687 98.6574 25.1296 98.8655 25.3718C99.0736 25.614 99.4415 25.8749 99.9618 26.1506C100.304 26.322 100.705 26.5121 101.166 26.7245C101.623 26.9332 102.072 27.1642 102.515 27.4213C103.224 27.8387 103.752 28.3306 104.105 28.8896C104.458 29.4485 104.629 30.0932 104.629 30.8199L104.64 30.8161Z" fill="#403E8C"/>
<path d="M119.943 21.146C119.772 21.4367 119.04 22.5024 117.743 24.3395C116.45 26.1767 115.387 27.7045 114.558 28.9231C114.543 30.1565 114.543 31.3527 114.558 32.5116C114.573 33.6706 114.58 34.5686 114.58 35.2058H110.876C110.89 34.6432 110.902 33.7823 110.909 32.6197C110.916 31.457 110.92 30.2571 110.92 29.0237C110.077 27.7679 109.047 26.2661 107.828 24.5184C106.61 22.7707 105.859 21.6751 105.573 21.2242L109.021 19.879C109.259 20.3113 109.761 21.0975 110.526 22.2341C111.292 23.3707 112.061 24.4998 112.834 25.6214H112.856C113.692 24.3656 114.51 23.1583 115.313 22.0031C116.115 20.8479 116.583 20.1399 116.717 19.8753L119.939 21.1423L119.943 21.146Z" fill="#403E8C"/>
<path d="M138.582 23.2663C138.27 23.2663 137.672 23.2626 136.791 23.2551C135.91 23.2477 134.848 23.244 133.603 23.244C133.588 24.4178 133.577 25.3606 133.569 26.0723C133.562 26.7841 133.558 27.7045 133.558 28.8336C133.558 30.1118 133.566 31.349 133.577 32.5414C133.588 33.7339 133.599 34.6208 133.606 35.2058H129.902C129.909 34.6431 129.916 33.7898 129.924 32.642C129.931 31.4943 129.935 30.2198 129.935 28.8224V26.1878C129.935 25.4612 129.928 24.4811 129.913 23.2477C128.69 23.2477 127.598 23.2514 126.635 23.2589C125.673 23.2663 125.104 23.27 124.922 23.27V20.2069C125.506 20.2069 126.453 20.2069 127.776 20.2144C129.095 20.2181 130.411 20.2218 131.726 20.2218C133.239 20.2218 134.688 20.2218 136.074 20.2144C137.456 20.2106 138.296 20.2069 138.586 20.2069V23.27L138.582 23.2663Z" fill="#403E8C"/>
<path d="M154.49 34.3115L150.841 35.5412C150.763 35.2953 150.574 34.7512 150.265 33.9128C149.961 33.0743 149.596 32.1278 149.173 31.0732H143.48C143.045 32.1427 142.674 33.0967 142.365 33.9351C142.057 34.7736 141.871 35.3065 141.8 35.5412L138.367 34.3674C138.567 33.9202 139.344 32.139 140.7 29.0237C142.053 25.9084 143.346 22.9235 144.576 20.0691H148.37C149.652 23.0763 150.968 26.1432 152.32 29.2696C153.669 32.3998 154.394 34.0767 154.49 34.3115ZM148.303 28.7405C148.021 27.9766 147.709 27.1381 147.371 26.2214C147.032 25.3047 146.694 24.4066 146.356 23.5235H146.312C146.029 24.2501 145.691 25.1482 145.301 26.2177C144.911 27.2872 144.591 28.1293 144.349 28.7442V28.7554H148.307V28.7442L148.303 28.7405Z" fill="#403E8C"/>
<path d="M168.786 27.4027C168.779 27.9691 168.767 28.6026 168.756 29.3032C168.745 30.0037 168.738 30.6074 168.738 31.1217C168.738 31.8222 168.745 32.5303 168.756 33.2457C168.767 33.9575 168.775 34.6096 168.775 35.2021C168.678 35.2245 168.336 35.258 167.746 35.2916C167.155 35.3251 166.657 35.3475 166.248 35.3475C164.561 35.3475 163.045 35.1723 161.7 34.8258C160.354 34.4792 159.11 33.8532 157.969 32.9476C157.214 32.3551 156.612 31.6173 156.155 30.7267C155.702 29.8361 155.472 28.8187 155.472 27.6747C155.472 26.4115 155.784 25.2823 156.412 24.2874C157.04 23.2924 157.932 22.4577 159.098 21.7869C160.039 21.2205 161.146 20.7845 162.428 20.4864C163.706 20.1883 165.118 20.0392 166.664 20.0392C166.857 20.0392 167.032 20.0392 167.184 20.0467C167.337 20.0504 167.485 20.0542 167.627 20.0542L168.028 23.162H167.077C166.307 23.162 165.497 23.2254 164.639 23.352C163.781 23.4787 163.004 23.6837 162.313 23.9706C161.373 24.3507 160.633 24.8948 160.091 25.5991C159.548 26.3034 159.28 27.0748 159.28 27.9207C159.28 28.856 159.496 29.6423 159.923 30.2758C160.351 30.913 160.897 31.4086 161.562 31.7663C162.082 32.0421 162.662 32.2545 163.29 32.3998C163.918 32.5452 164.572 32.6346 165.241 32.6644C165.241 32.5228 165.241 32.016 165.234 31.1515C165.23 30.2832 165.219 29.0386 165.204 27.4139H168.782L168.786 27.4027Z" fill="#403E8C"/>
<path d="M182 30.8161C182 31.6397 181.785 32.3477 181.357 32.9439C180.93 33.5402 180.347 34.032 179.607 34.4196C178.957 34.7624 178.158 35.0195 177.207 35.1835C176.255 35.3475 175.297 35.4295 174.327 35.4295C173.624 35.4295 172.996 35.4146 172.443 35.3885C171.885 35.3624 171.521 35.34 171.339 35.3251L171.005 32.3067C171.094 32.3216 171.436 32.3477 172.026 32.3812C172.617 32.4148 173.152 32.4334 173.621 32.4334C173.97 32.4334 174.408 32.4036 174.929 32.344C175.449 32.2843 175.887 32.2024 176.237 32.098C176.705 31.9564 177.036 31.7738 177.225 31.554C177.415 31.3341 177.511 31.0621 177.511 30.7416C177.511 30.3839 177.407 30.082 177.199 29.8398C176.991 29.5976 176.631 29.3442 176.125 29.0833C175.813 28.9268 175.389 28.7293 174.854 28.4871C174.319 28.2486 173.866 28.0101 173.483 27.7679C172.751 27.3282 172.227 26.8288 171.911 26.2773C171.595 25.7221 171.436 25.1109 171.436 24.4365C171.436 23.8589 171.554 23.3409 171.789 22.8825C172.023 22.4242 172.335 22.0292 172.721 21.6975C173.312 21.1572 174.111 20.7436 175.126 20.4529C176.14 20.1622 177.337 20.0169 178.715 20.0169C179.373 20.0169 179.938 20.0281 180.41 20.0467C180.882 20.0653 181.179 20.084 181.298 20.0989L181.677 23.1173C181.491 23.1099 181.198 23.0875 180.792 23.054C180.387 23.0204 179.886 23.0018 179.284 23.0018C178.868 23.0018 178.466 23.0316 178.08 23.0912C177.697 23.1508 177.329 23.2403 176.976 23.3595C176.649 23.4639 176.389 23.6204 176.2 23.8291C176.01 24.0377 175.913 24.2911 175.913 24.593C175.913 24.8687 176.017 25.1296 176.226 25.3718C176.434 25.614 176.801 25.8749 177.322 26.1506C177.664 26.322 178.065 26.5121 178.526 26.7245C178.983 26.9332 179.432 27.1642 179.875 27.4213C180.584 27.8387 181.112 28.3306 181.465 28.8896C181.818 29.4485 181.989 30.0932 181.989 30.8199L182 30.8161Z" fill="#403E8C"/>
<path d="M50.1745 36.7151C42.5641 54.0132 19.6066 57.1881 6.99071 43.3854C-1.1808 34.5351 -2.35134 20.8926 4.34119 10.8499C7.42177 6.20301 12.0594 2.566 17.3324 0.814575C8.01633 5.30121 1.82917 15.0123 2.27881 25.4016C2.45718 31.3714 4.84285 37.2554 8.90446 41.6228C20.6582 54.5386 41.4642 51.6656 50.1745 36.7151Z" fill="#AFADEA"/>
<path d="M40.617 43.8661C34.2886 48.1478 25.608 48.703 18.6628 45.461C7.58904 40.6613 1.88125 27.0934 6.05061 15.7538C8.58494 8.34194 15.0062 2.44672 22.6054 0.631942C26.3066 -0.251224 30.2121 -0.221412 33.8575 0.799632C31.9958 0.590951 30.1378 0.553687 28.3058 0.710197C17.247 1.73124 8.18361 10.5853 7.35494 21.7385C6.08406 39.6999 24.5898 51.5202 40.617 43.8661Z" fill="#AFADEA"/>
<path d="M53.4036 15.7986C62.0136 34.4345 47.8705 57.5198 26.8081 55.9211C22.4567 55.5783 18.1387 54.0542 14.6196 51.5276C18.5177 53.2828 22.6388 54.2703 26.8713 54.2107C46.5365 53.9387 58.2753 34.0656 53.4036 15.7986Z" fill="#AFADEA"/>
<path d="M43.7346 18.6158L35.3662 14.4943C34.779 14.2037 34.0953 14.1962 33.5007 14.4682L11.1824 24.7569C11.1824 24.7569 13.3414 29.605 19.3465 26.6425L29.3016 22.1149C29.703 21.9323 30.1898 22.0366 30.4425 22.3944C30.4648 22.4242 30.4871 22.4577 30.5056 22.4913C30.5725 22.6105 30.5985 22.7335 30.5985 22.849C30.5985 23.1844 30.383 23.4825 30.0783 23.6204L17.9529 29.1728C17.9529 29.1728 19.9633 32.7576 23.4118 32.37C23.6384 32.344 23.854 32.2806 24.0584 32.1837L32.0812 28.4834C32.3674 28.3529 32.6944 28.3269 32.9879 28.4424C33.1923 28.5244 33.3967 28.6697 33.5007 28.9417C33.6791 29.4001 33.4264 29.7466 33.2481 29.9181C33.1737 29.9889 33.092 30.0447 33.0028 30.0857L25.0022 33.7749C25.0022 33.7749 26.5927 36.9238 30.1749 36.7896C30.4871 36.7784 30.7918 36.7002 31.0705 36.5697L41.3378 31.8372C41.9287 31.5651 42.3671 31.0434 42.5381 30.4174L44.9906 21.418C45.2954 20.3038 44.764 19.13 43.7309 18.6195L43.7346 18.6158ZM41.0926 23.557C40.1375 23.9967 39.0116 23.5794 38.5731 22.6217C38.1346 21.6677 38.5545 20.5386 39.5058 20.0989C40.4571 19.6592 41.5831 20.0803 42.0216 21.0342C42.46 21.9882 42.0439 23.121 41.0926 23.557Z" fill="#403E8C"/>
</svg>
