<svg width="56" height="56" viewBox="0 0 56 56" fill="none" xmlns="http://www.w3.org/2000/svg">
<path d="M50.1746 36.7151C42.5642 54.0132 19.6067 57.1881 6.99083 43.3854C-1.18068 34.5351 -2.35122 20.8926 4.34132 10.8499C7.42189 6.20301 12.0595 2.566 17.3325 0.814575C8.01645 5.30121 1.82929 15.0123 2.27893 25.4016C2.4573 31.3714 4.84298 37.2554 8.90458 41.6228C20.6583 54.5386 41.4643 51.6656 50.1746 36.7151Z" fill="#AFADEA"/>
<path d="M40.617 43.8661C34.2886 48.1478 25.608 48.703 18.6628 45.461C7.58904 40.6613 1.88125 27.0934 6.05061 15.7538C8.58494 8.34194 15.0062 2.44672 22.6054 0.631942C26.3066 -0.251224 30.2121 -0.221412 33.8575 0.799632C31.9958 0.590951 30.1378 0.553687 28.3058 0.710197C17.247 1.73124 8.18361 10.5853 7.35494 21.7385C6.08406 39.6999 24.5898 51.5202 40.617 43.8661Z" fill="#AFADEA"/>
<path d="M53.4036 15.7986C62.0136 34.4345 47.8705 57.5198 26.8081 55.9211C22.4567 55.5783 18.1387 54.0542 14.6196 51.5276C18.5177 53.2828 22.6388 54.2703 26.8713 54.2107C46.5365 53.9387 58.2753 34.0656 53.4036 15.7986Z" fill="#AFADEA"/>
<path d="M43.7346 18.6158L35.3662 14.4943C34.779 14.2037 34.0953 14.1962 33.5007 14.4682L11.1824 24.7569C11.1824 24.7569 13.3414 29.605 19.3465 26.6425L29.3016 22.1149C29.703 21.9323 30.1898 22.0366 30.4425 22.3944C30.4648 22.4242 30.4871 22.4577 30.5056 22.4913C30.5725 22.6105 30.5985 22.7335 30.5985 22.849C30.5985 23.1844 30.383 23.4825 30.0783 23.6204L17.9529 29.1728C17.9529 29.1728 19.9633 32.7576 23.4118 32.37C23.6384 32.344 23.854 32.2806 24.0584 32.1837L32.0812 28.4834C32.3674 28.3529 32.6944 28.3269 32.9879 28.4424C33.1923 28.5244 33.3967 28.6697 33.5007 28.9417C33.6791 29.4001 33.4264 29.7466 33.2481 29.9181C33.1737 29.9889 33.092 30.0447 33.0028 30.0857L25.0022 33.7749C25.0022 33.7749 26.5927 36.9238 30.1749 36.7896C30.4871 36.7784 30.7918 36.7002 31.0705 36.5697L41.3378 31.8372C41.9287 31.5651 42.3671 31.0434 42.5381 30.4174L44.9906 21.418C45.2954 20.3038 44.764 19.13 43.7309 18.6195L43.7346 18.6158ZM41.0926 23.557C40.1375 23.9967 39.0116 23.5794 38.5731 22.6217C38.1346 21.6677 38.5545 20.5386 39.5058 20.0989C40.4571 19.6592 41.5831 20.0803 42.0216 21.0342C42.46 21.9882 42.0439 23.121 41.0926 23.557Z" fill="#403E8C"/>
</svg>
