<svg width="25" height="24" viewBox="0 0 25 24" fill="none" xmlns="http://www.w3.org/2000/svg">
<path d="M8.68577 11.7014C9.46521 13.2919 10.7569 14.5753 12.3539 15.346C12.4708 15.4013 12.6 15.4253 12.729 15.4155C12.8579 15.4058 12.9821 15.3627 13.0893 15.2905L15.4408 13.7254C15.5448 13.6562 15.6644 13.614 15.7889 13.6026C15.9134 13.5911 16.0388 13.6109 16.1536 13.6601L20.5529 15.5419C20.7023 15.6053 20.8271 15.7154 20.9084 15.8557C20.9897 15.996 21.0231 16.1588 21.0036 16.3197C20.8645 17.4057 20.3337 18.4039 19.5104 19.1274C18.6871 19.8508 17.6278 20.2499 16.5309 20.25C13.143 20.25 9.89387 18.9067 7.49827 16.5156C5.10267 14.1245 3.75684 10.8815 3.75684 7.5C3.75689 6.40516 4.15677 5.34789 4.88159 4.52613C5.60642 3.70438 6.60648 3.17451 7.69453 3.03572C7.85572 3.01625 8.01889 3.04959 8.15945 3.13073C8.3 3.21186 8.41033 3.33639 8.47381 3.48555L10.3609 7.88035C10.4097 7.99403 10.4296 8.11799 10.4187 8.24119C10.4079 8.3644 10.3668 8.48302 10.2989 8.5865L8.73632 10.9696C8.6652 11.0768 8.62316 11.2006 8.6143 11.3289C8.60544 11.4571 8.63006 11.5855 8.68577 11.7014V11.7014Z" stroke="black" stroke-linecap="round" stroke-linejoin="round"/>
</svg>
