<svg width="19" height="24" viewBox="0 0 19 24" fill="none" xmlns="http://www.w3.org/2000/svg">
<g clip-path="url(#clip0_258_759)">
<path d="M18.9999 18.1361V10.1626C18.9999 9.25448 18.253 8.51773 17.3339 8.51773C16.4148 8.51773 15.6679 9.25448 15.6679 10.1626V9.053C15.6679 8.59892 15.4819 8.18845 15.1801 7.89074C14.8783 7.59303 14.4622 7.4096 14.0019 7.4096C13.0812 7.4096 12.3358 8.14485 12.3358 9.053V7.98847C12.3358 7.5344 12.1499 7.12392 11.8481 6.82621C11.5463 6.52851 11.1286 6.34357 10.6698 6.34357C9.74916 6.34357 9.00227 7.08032 9.00227 7.98847V1.6434C9.00227 1.18932 8.81631 0.77885 8.5145 0.481143C8.2127 0.183436 7.79657 0 7.33624 0C6.41558 0 5.67022 0.735246 5.67022 1.6434V13.0736C0.400823 9.07555 0.00146484 13.0104 0.00146484 13.0104L6.18237 21.6214C6.31193 21.8003 6.46893 21.9566 6.65337 22.0814C7.45818 22.6302 9.87415 24.0481 13.2519 23.9985C16.427 23.9985 19.0015 21.4605 19.0015 18.3285C19.0015 18.2924 19.0015 18.2564 18.9999 18.2203V18.1827C19.0015 18.1677 19.0015 18.1511 19.0015 18.1361H18.9999ZM9.00074 16.1047V15.9619C9.00074 16.013 9.00379 16.0627 9.00836 16.1123C9.00532 16.1093 9.00379 16.1063 9.00074 16.1047Z" fill="url(#paint0_linear_258_759)"/>
<path d="M9.00852 11.6061C8.84085 11.6061 8.70367 11.4722 8.70367 11.3053L8.69604 7.98846C8.69604 7.82307 8.8317 7.68774 9.0009 7.68774C9.16857 7.68774 9.30575 7.82156 9.30575 7.98846L9.31337 11.3053C9.31337 11.4707 9.17771 11.6061 9.00852 11.6061Z" fill="#DCAEFF"/>
<path d="M12.3679 11.6061C12.2002 11.6061 12.063 11.4723 12.063 11.3069L12.0554 9.06955C12.0554 8.90416 12.1911 8.76884 12.3588 8.76733C12.5264 8.76733 12.6636 8.90115 12.6636 9.06654L12.6712 11.3039C12.6712 11.4693 12.5356 11.6046 12.3679 11.6061Z" fill="#DCAEFF"/>
<path d="M15.7258 11.6061C15.5581 11.6061 15.4225 11.4723 15.421 11.3069L15.4133 10.1642C15.4133 9.99876 15.5475 9.86194 15.7167 9.86194H15.7182C15.8859 9.86194 16.0215 9.99576 16.023 10.1611L16.0307 11.3039C16.0307 11.4693 15.8965 11.6061 15.7273 11.6061H15.7258Z" fill="#DCAEFF"/>
</g>
<defs>
<linearGradient id="paint0_linear_258_759" x1="-1.11279" y1="-1.54399e-07" x2="23.3586" y2="21.5808" gradientUnits="userSpaceOnUse">
<stop offset="0.321375" stop-color="#AA77FF"/>
<stop offset="1" stop-color="#9992E8"/>
</linearGradient>
<clipPath id="clip0_258_759">
<rect width="19" height="24" fill="white"/>
</clipPath>
</defs>
</svg>
