<svg width="335" height="715" viewBox="0 0 335 715" fill="none" xmlns="http://www.w3.org/2000/svg">
<g clip-path="url(#clip0_131_177)">
<path d="M177.516 27.1811C177.516 27.1811 182.176 41.4125 199.109 31.6001C199.109 31.6001 193.968 43.3483 207.656 50.464C207.683 50.464 207.696 50.4773 207.723 50.464C208.31 50.237 218.633 46.4322 215.308 59.3019C215.308 59.3019 212.37 66.1639 207.95 62.7329C207.95 62.7329 206.654 70.5027 209.579 74.7214C210.407 75.9229 217.191 77.525 218.646 77.6318C222.399 77.9121 233.042 74.0272 228.301 62.2256C228.301 62.2256 233.59 53.5212 226.459 50.5441C226.459 50.5441 234.538 46.806 228.355 35.3915C227.741 34.2568 226.792 33.3356 225.617 32.7882C223.681 31.8938 220.529 30.9059 218.005 32.321C218.005 32.321 228.288 26.3267 218.873 13.9243C217.765 12.4558 216.336 11.2142 214.654 10.4666C211.782 9.18498 206.868 8.21041 200.338 11.4679C200.338 11.4679 199.403 -5.75396 175.326 1.97584C173.536 2.5499 171.907 3.53782 170.625 4.92625C168.675 7.03559 166.512 10.6402 167.22 15.8868C167.22 15.8868 170.131 5.80736 153.679 7.9167C151.996 8.13031 150.38 8.81117 149.072 9.87919C145.252 13.0165 138.669 20.4526 148.084 29.1303C148.084 29.1303 126.53 30.4786 137.854 48.4347C137.854 48.4347 129.174 63.7742 145.773 65.6165C145.773 65.6165 138.335 77.6718 152.931 80.9159C152.931 80.9159 161.491 81.3164 161.357 73.2262C161.357 73.2262 159.114 69.3546 159.114 67.3921C159.114 67.3921 145.92 68.834 148.471 56.5384C148.524 56.2447 148.671 55.9776 148.885 55.7774C150.047 54.6426 154.213 51.3718 158.38 57.8333C158.38 57.8333 165.497 49.7431 160.102 37.7278C160.102 37.7278 171.627 46.806 177.516 27.1811Z" fill="#473A68"/>
<path d="M194.822 80.3152C194.822 80.3152 199.657 93.345 213.652 85.9223C214.506 85.4684 215.254 84.8142 215.868 84.0532C218.339 80.956 223.614 72.6254 214.546 66.8181C214.546 66.8181 198.121 52.9471 194.809 80.3018L194.822 80.3152Z" fill="#4B3E6D"/>
<path d="M158.86 68.5269C158.86 68.5269 147.549 76.6172 158.406 88.1651C159.074 88.8727 159.902 89.42 160.796 89.8072C164.442 91.3692 173.857 94.2662 177.075 83.9998C177.075 83.9998 186.129 64.5085 158.86 68.5269Z" fill="#4B3E6D"/>
<path d="M158.379 57.8467C158.379 57.8467 154.613 50.504 148.724 55.9776C148.617 56.0711 148.537 56.2046 148.51 56.3381C148.11 57.8867 146.147 67.6725 159.114 67.4188C159.114 67.4188 162.946 85.3482 186.075 86.0291C186.075 86.0291 204.357 85.0812 207.936 62.7596C207.936 62.7596 214.573 68.0463 216.349 54.9764C216.349 54.9764 216.63 47.4735 207.682 50.4907C207.682 50.4907 195.316 45.2707 199.096 31.6001C199.096 31.6001 183.498 40.6515 177.502 27.1811C177.502 27.1811 172.494 45.6045 160.088 37.7278C160.088 37.7278 165.497 47.1531 158.366 57.8333L158.379 57.8467Z" fill="#FFCD9F"/>
<path d="M196.999 81.4099H171.68V108.364H196.999V81.4099Z" fill="#FFCD9F"/>
<path d="M171.64 101.208C171.64 101.208 160.65 101.008 155.815 103.131C155.815 103.131 161.958 117.723 186.45 118.096C186.45 118.096 211.702 115.814 213.024 103.291C213.024 103.291 209.232 100.447 196.706 100.821L171.653 101.195L171.64 101.208Z" fill="#FFCD9F"/>
<path d="M155.815 103.131C155.815 103.131 164.709 121.888 194.796 116.615C194.796 116.615 210.153 114.478 213.024 103.291C213.024 103.291 248.92 107.256 255.517 118.684C255.517 118.684 241.415 242.868 241.415 254.282C241.415 254.282 176.821 285.909 139.924 255.604L115.433 118.11C115.433 118.11 136.145 101.435 155.829 103.131H155.815Z" fill="#E7DAEC"/>
<path d="M262.915 287.284C262.915 287.284 281.023 270.823 280.623 253.535C280.623 253.535 284.749 143.515 255.517 118.684L242.75 170.403L243.979 274.121L262.915 287.298V287.284Z" fill="#E7DAEC"/>
<path d="M111.373 343.556L125.942 660.331L170.011 664.109C170.011 664.109 174.471 590.829 173.069 551.032C172.989 548.909 173.242 543.983 173.563 541.887C174.097 538.363 173.122 531.367 175.112 510.527L184.98 379.121C184.98 379.121 206.614 504.613 208.751 530.793C208.911 532.742 211.782 556.546 212.29 558.428L227.66 666.005L264.304 657.313L260.685 376.144L257.987 319.338L250.669 272.385L113.937 273.453L110.745 320.62C109.757 327.896 110.745 336.253 111.386 343.556H111.373Z" fill="#272737"/>
<path d="M121.108 114.252C107.1 116.481 57.9701 221.387 58.9716 227.555C19.7908 212.963 -1.80269 218.29 0.120296 250.264C0.120296 250.264 36.6437 273.587 71.9518 269.715C82.6885 268.541 91.8493 261.411 96.2428 251.546L131.177 172.873L121.108 114.265V114.252Z" fill="#E7DAEC"/>
<path d="M122.31 163.888H239.398C247.651 163.888 254.355 170.59 254.355 178.84V277.085H109.837V176.37C109.837 169.482 115.432 163.901 122.31 163.901V163.888Z" fill="#7758B4" stroke="#3E2A63" stroke-width="2" stroke-miterlimit="10"/>
<path d="M254.355 277.085H109.837L84.3843 322.395L286.872 321.982L254.355 277.085Z" fill="#7758B4"/>
<path d="M245.141 279.755L118.838 279.434L101.785 310.42L266.187 310.06L245.141 279.755Z" fill="#3F2B5E"/>
<path d="M286.872 321.982L286.832 331.327L84.3843 331.58V322.395L286.872 321.982Z" fill="#3F2B5E"/>
<path d="M115.019 617.49L179.666 616.195L171.907 660.144L158.326 661.439C158.326 661.439 146.695 646.58 125.996 657.567L115.005 617.503L115.019 617.49Z" fill="#4B3E6D"/>
<path d="M142.969 714.947L172.187 706.856L171.907 660.144L158.326 661.439L141.032 689.221L142.969 714.947Z" fill="#4B3E6D"/>
<path d="M126.009 657.554L117.502 680.129C117.502 680.129 134.903 684.682 139.991 692.491L158.339 661.439C158.339 661.439 147.335 645.699 126.009 657.567V657.554Z" fill="#4B3E6D"/>
<path d="M143.636 714.68C143.476 715.374 100.196 714.733 100.196 714.733C100.196 714.733 82.5416 685.402 121.762 679.568C121.762 679.568 151.863 677.78 143.636 714.693V714.68Z" fill="#4B3E6D"/>
<path d="M216.656 615.768L272.503 613.645L264.317 657.314L251.497 670.877L225.417 659.997L216.656 615.768Z" fill="#4B3E6D"/>
<path d="M307.01 670.423C307.01 670.423 288.461 684.241 299.892 704.814L332.863 703.906C332.863 703.906 346.03 671.238 307.01 670.423Z" fill="#4B3E6D"/>
<path d="M264.317 657.313L310.776 671.198C310.776 671.198 298.517 678.46 297.422 685.496L251.511 670.877L264.331 657.313H264.317Z" fill="#4B3E6D"/>
<path d="M225.417 659.997L227.166 705.708L299.879 704.8C299.879 704.8 294.818 694.134 297.408 685.496L225.417 659.997Z" fill="#4B3E6D"/>
<path d="M31.9031 226.461C31.9031 226.461 83.6634 230.225 82.8488 238.262C82.8488 238.262 83.4765 244.844 64.8743 240.932L31.1553 235.579L31.9031 226.461Z" fill="#FFCD9F"/>
<path d="M25.5332 220.453C25.5332 220.453 44.4025 212.429 45.6044 204.94C45.6044 204.94 51.2264 199.934 52.6553 210.347C52.8022 211.388 52.7221 212.443 52.4416 213.444C51.4267 217.035 48.195 225.686 40.3829 227.275L31.9031 226.447L25.5332 220.453Z" fill="#FFCD9F"/>
<path d="M31.1552 235.579L20.6055 255.778L30.0468 259.529C36.39 260.891 45.5375 257.26 49.6372 252.213L58.4375 239.29L31.1552 235.565V235.579Z" fill="#FFCD9F"/>
<path d="M25.5332 220.453L7.15798 227.408C6.65053 227.595 6.2232 227.956 5.95611 228.41C2.57754 234.164 1.25548 240.999 1.70952 248.769C1.73623 249.129 1.9766 249.45 2.31046 249.57L26.3478 257.967L31.1686 235.565L31.9164 226.447L25.5465 220.453H25.5332Z" fill="#FFCD9F"/>
<path d="M171.613 82.7049C171.613 82.7049 183.779 88.085 192.579 84.1066C192.579 84.1066 178.224 93.4518 171.613 82.7049Z" fill="#3D1B1F"/>
<path d="M126.009 657.554C126.009 657.554 144.064 652.027 155.508 659.183" stroke="#C7AD9F" stroke-width="0.5" stroke-miterlimit="10" stroke-linecap="round"/>
<path d="M172.094 695.495L146.067 704.066" stroke="#C7AD9F" stroke-width="0.5" stroke-miterlimit="10" stroke-linecap="round"/>
<path d="M170.638 669.97C170.638 669.97 156.964 675.003 159.848 692.985" stroke="#C7AD9F" stroke-width="0.5" stroke-miterlimit="10" stroke-linecap="round"/>
<path d="M185.902 378.92L221.798 615.073" stroke="black" stroke-miterlimit="10" stroke-linecap="round"/>
<path d="M134.569 161.271L140.511 152.18" stroke="black" stroke-width="0.5" stroke-miterlimit="10" stroke-linecap="round"/>
<path d="M41.2109 236.246C41.9187 236.246 70.3495 243.656 80.2716 241.52C80.2716 241.52 85.4529 238.796 81.3666 235.659" stroke="black" stroke-width="0.5" stroke-miterlimit="10" stroke-linecap="round"/>
<path d="M39.3276 244.296C39.3276 244.296 49.7304 248.555 53.75 245.485C53.75 245.485 56.7814 244.443 58.1569 239.918" stroke="black" stroke-width="0.5" stroke-miterlimit="10" stroke-linecap="round"/>
<path d="M35.9893 250.985C35.9893 250.985 40.316 253.254 44.3623 253.788C46.6458 254.082 48.9026 253.121 50.3849 251.359C51.4933 250.05 52.762 248.128 53.7502 245.471" stroke="black" stroke-width="0.5" stroke-miterlimit="10" stroke-linecap="round"/>
<path d="M47.594 253.882C37.8321 262.319 28.3374 258.768 28.3374 258.768" stroke="black" stroke-width="0.5" stroke-miterlimit="10" stroke-linecap="round"/>
<path d="M226.485 674.709C226.485 674.709 252.418 670.343 252.699 694.093" stroke="#C7AD9F" stroke-width="0.5" stroke-miterlimit="10" stroke-linecap="round"/>
<path d="M237.956 694.641L326.146 694.36" stroke="#C7AD9F" stroke-width="0.5" stroke-miterlimit="10" stroke-linecap="round"/>
<path d="M264.317 657.313C264.317 657.313 251.644 661.359 251.497 670.877" stroke="#C7AD9F" stroke-width="0.5" stroke-miterlimit="10" stroke-linecap="round"/>
<path d="M226.672 150.457L228.809 161.138" stroke="black" stroke-width="0.5" stroke-miterlimit="10" stroke-linecap="round"/>
<path d="M47.9677 203.792C47.9677 203.792 53.3494 204.686 51.8938 215.099C51.8938 215.099 49.637 225.005 40.396 227.275" stroke="black" stroke-width="0.5" stroke-miterlimit="10" stroke-linecap="round"/>
<path fill-rule="evenodd" clip-rule="evenodd" d="M173.416 247C164.86 247 157.704 242.547 155.925 236.593C152.888 238.352 149.067 239.4 144.916 239.4C135.021 239.4 127 233.445 127 226.1C127 220.354 131.908 215.459 138.782 213.6C137.329 211.678 136.5 209.461 136.5 207.1C136.5 199.755 144.521 193.8 154.416 193.8C157.925 193.8 161.198 194.549 163.961 195.843C167.183 192.317 172.626 190 178.798 190C185.501 190 191.344 192.732 194.416 196.778C197.499 194.916 201.432 193.8 205.716 193.8C215.61 193.8 223.632 199.755 223.632 207.1L223.632 207.114C233.147 207.43 240.732 213.258 240.732 220.4C240.732 227.745 232.71 233.7 222.816 233.7C221.118 233.7 219.475 233.525 217.919 233.197C217.927 233.364 217.932 233.532 217.932 233.7C217.932 241.045 209.91 247 200.016 247C194.739 247 189.994 245.306 186.716 242.611C183.437 245.306 178.693 247 173.416 247Z" fill="#C5AEE4"/>
<path d="M168 225C168 223.895 168.895 223 170 223C171.105 223 172 223.895 172 225V234H168V225Z" fill="white"/>
<path d="M193 225C193 223.895 193.895 223 195 223C196.105 223 197 223.895 197 225V234H193V225Z" fill="white"/>
<rect x="180" y="206" width="4" height="11" fill="white"/>
<rect x="169" y="231" width="28" height="3" fill="white"/>
<path fill-rule="evenodd" clip-rule="evenodd" d="M175 219.136L182.136 226.142L189.142 219.005L187.001 216.904L182.097 221.899L177.102 216.995L175 219.136Z" fill="white"/>
</g>
<defs>
<clipPath id="clip0_131_177">
<rect width="335" height="715" fill="white"/>
</clipPath>
</defs>
</svg>
